<svg id="Layer_1" data-name="Layer 1" xmlns="http://www.w3.org/2000/svg" viewBox="0 0 82.57 94.31"><defs><style>.cls-1{fill:#fff;}.cls-2{fill:#fff900;}</style></defs><title>Artboard 1</title><rect class="cls-1" x="50.71" y="49.29" width="39.58" height="7.7" transform="translate(123.65 -17.36) rotate(90)"/><path class="cls-2" d="M70.52,23.28a11.18,11.18,0,1,1,6.35-2A11.18,11.18,0,0,1,70.52,23.28Zm0-14.66a3.46,3.46,0,0,0-2,.62,3.49,3.49,0,1,0,4.85.88h0a3.46,3.46,0,0,0-2.24-1.44A3.36,3.36,0,0,0,70.5,8.62Z"/><rect class="cls-2" x="-8.79" y="57.33" width="75.53" height="7.7" transform="translate(-36.44 43.78) rotate(-49.76)"/></svg>