<svg data-name="Layer 1" xmlns="http://www.w3.org/2000/svg" viewBox="0 0 22 22"><g data-name="グループ 23"><g data-name="グループ 21"><path data-name="パス 31" d="M10.94 1.36L9.48 3.78l-2 3.36L3.62 8l-2.75.68 1.85 2.14 2.57 3L5 17.7l-.24 2.82 2.6-1.1 3.62-1.53 3.62 1.52 2.6 1.1-.24-2.82-.33-3.91 2.56-3L21 8.67 18.25 8l-3.82-.9-2-3.36-1.5-2.39z" fill="#727262"/><g data-name="グループ 26"><path data-name="パス 32" d="M10.94 4.66l-2.4 4 2.4 3.31 2.41-3.31z" fill="#fff900"/><path data-name="パス 35" d="M10.94 12l-3.89 1.21-.39 4.63L10.94 16z" fill="#bf9200"/><path data-name="パス 36" d="M8.54 8.64L4 9.7l3 3.51L10.94 12z" fill="#ead07e"/></g></g></g></svg>