<svg id="Layer_1" data-name="Layer 1" xmlns="http://www.w3.org/2000/svg" viewBox="0 0 27.48 24.61"><defs><style>.cls-2{fill:#fff}</style></defs><path d="M24.1 1.34h-8.58l-.72.78-1.11 1.22-1.11-1.22-.72-.78H3.29L2.8 3.12l-2.2 8-.4 1.5 1.16 1 10.75 9.27 1.58 1.36 1.58-1.36L26 13.62l1.16-1-.41-1.48-2.19-8-.46-1.8z" fill="#4e4e40"/><path class="cls-2" d="M13.69 6.93v14.12L2.94 11.78l10.75-4.85z"/><path class="cls-2" d="M10.79 3.76H5.13l-2.19 8.02 10.75-4.85-2.9-3.17zm2.9 3.17v14.12l10.76-9.27-10.76-4.85z"/><path class="cls-2" d="M16.59 3.76h5.66l2.2 8.02-10.76-4.85 2.9-3.17z"/></svg>