<svg id="Layer_1" data-name="Layer 1" xmlns="http://www.w3.org/2000/svg" viewBox="0 0 37 37"><defs><style>.cls-1{fill:#bf9200}</style></defs><path id="パス_45" data-name="パス 45" class="cls-1" d="M18.53 3.58c4.84 0 5.42 0 7.33.1a10.11 10.11 0 013.36.63 6 6 0 013.44 3.44 10.11 10.11 0 01.63 3.36c.08 1.91.1 2.49.1 7.33s0 5.41-.1 7.32a10.21 10.21 0 01-.63 3.37 6 6 0 01-3.44 3.43 9.86 9.86 0 01-3.36.63c-1.91.09-2.49.1-7.33.1s-5.41 0-7.32-.1a9.86 9.86 0 01-3.36-.63 6 6 0 01-3.44-3.43 10.21 10.21 0 01-.63-3.37c-.08-1.91-.1-2.48-.1-7.32s0-5.42.1-7.33a10.11 10.11 0 01.63-3.36 6 6 0 013.43-3.44 10 10 0 013.37-.62c1.91-.09 2.48-.11 7.32-.11m0-3.27c-4.92 0-5.54 0-7.47.11a13.27 13.27 0 00-4.4.85 9.27 9.27 0 00-5.3 5.29A13.26 13.26 0 00.52 11c-.09 1.9-.11 2.51-.11 7.43s0 5.54.11 7.48a13.16 13.16 0 00.84 4.39 9.3 9.3 0 005.3 5.31 13.52 13.52 0 004.4.84c1.94.09 2.55.11 7.47.11s5.54 0 7.48-.11a13.41 13.41 0 004.39-.84 9.32 9.32 0 005.31-5.31 13.41 13.41 0 00.84-4.39c.09-1.94.11-2.55.11-7.48s0-5.54-.11-7.47a13.52 13.52 0 00-.84-4.4 9.34 9.34 0 00-5.3-5.3A13.52 13.52 0 0026 .42C24.07.33 23.46.31 18.54.31z"/><path id="パス_46" data-name="パス 46" class="cls-1" d="M18.53 9.13a9.31 9.31 0 109.31 9.31 9.31 9.31 0 00-9.31-9.31zm0 15.35a6 6 0 116-6 6 6 0 01-6 6z"/><circle id="楕円形_1" data-name="楕円形 1" class="cls-1" cx="28.21" cy="8.76" r="2.17"/></svg>