<svg id="Layer_1" data-name="Layer 1" xmlns="http://www.w3.org/2000/svg" viewBox="0 0 150.77 94.31"><defs><style>.cls-1{fill:#fff}.cls-3{fill:#fff900}</style></defs><path class="cls-1" d="M70.87 83.62a6.86 6.86 0 00-1.67-.16h-1.57v8.87h1.48V88.8h.52a3.26 3.26 0 002.22-.72 2.48 2.48 0 00.83-2 2.57 2.57 0 00-.78-1.91 2.23 2.23 0 00-1.03-.55zm.37 2.49c0 .88-.56 1.3-1.72 1.3h-.41v-2.57h.35c1.2 0 1.78.41 1.78 1.27zm17.1-3.31l-4.44 9.53h1.6l1-2.11h3.62l.88 2.11h1.62L88.41 83zm0 3.34l1.17 2.68h-2.42zm15.33-1.28h2v7.47h1.48v-7.47h1.99v-1.4h-5.47v1.4zm22.06 2.88a2.57 2.57 0 00.54-1.64 2.48 2.48 0 00-.87-2 4 4 0 00-2.55-.67h-1.62v8.87h1.48v-3.53h.11l2.49 3.56h1.81l-2.72-3.74a2.42 2.42 0 001.33-.85zm-.9-1.62c0 .9-.58 1.34-1.78 1.34h-.34v-2.6h.39c1.16 0 1.73.41 1.73 1.26zm21.9-1.46a4.43 4.43 0 00-3.24-1.36 4.55 4.55 0 00-3.29 1.34 4.57 4.57 0 00.14 6.66 4.67 4.67 0 006.39-.15 4.55 4.55 0 000-6.49zm-3.3 6.44a3.18 3.18 0 01-3.11-3.22 3.12 3.12 0 01.91-2.26 3.06 3.06 0 012.24-.92 3 3 0 012.23.92 3.29 3.29 0 010 4.55 3.06 3.06 0 01-2.27.93z"/><path d="M148.71 41.05h-47V5.55h47zm-39.31-7.7H141v-20.1h-31.6z" fill="#bf9200"/><path class="cls-1" d="M148.71 50.94H91.94V33.35h-7.69v39.58h7.69V58.64h56.77v-7.7z"/><path class="cls-1" transform="rotate(90 70.505 53.145)" d="M50.71 49.29h39.58v7.7H50.71z"/><path class="cls-3" d="M70.52 23.28a11.18 11.18 0 116.35-2 11.18 11.18 0 01-6.35 2zm0-14.66a3.46 3.46 0 00-2 .62 3.49 3.49 0 104.85.88 3.46 3.46 0 00-2.24-1.44 3.36 3.36 0 00-.63-.06z"/><path class="cls-3" transform="rotate(-49.76 28.981 61.178)" d="M-8.79 57.33h75.53v7.7H-8.79z"/></svg>