<svg id="Layer_1" data-name="Layer 1" xmlns="http://www.w3.org/2000/svg" viewBox="0 0 22 22"><defs><style>.cls-1{fill:#727262;}.cls-2{fill:#fff900;}.cls-3{fill:#d1be81;}.cls-4{fill:#bf9200;}.cls-5{fill:#ead07e;}</style></defs><title>Artboard 1</title><g id="グループ_23" data-name="グループ 23"><g id="グループ_21" data-name="グループ 21"><path id="パス_31" data-name="パス 31" class="cls-1" d="M10.94,1.36,9.48,3.78l-2,3.36L3.62,8,.87,8.68l1.85,2.14,2.57,3L5,17.7l-.24,2.82,2.6-1.1,3.62-1.53,3.62,1.52,2.6,1.1-.24-2.82-.33-3.91,2.56-3L21,8.67,18.25,8l-3.82-.9-2-3.36L10.93,1.35Z"/><g id="グループ_26" data-name="グループ 26"><path id="パス_32" data-name="パス 32" class="cls-2" d="M10.94,4.66l-2.4,4,2.4,3.31,2.41-3.31Z"/><path id="パス_33" data-name="パス 33" class="cls-3" d="M13.35,8.64,11,12l3.89,1.26,3-3.51Z"/><path id="パス_34" data-name="パス 34" class="cls-2" d="M14.84,13.21,10.94,12V16l4.28,1.8Z"/><path id="パス_35" data-name="パス 35" class="cls-4" d="M10.94,12,7.05,13.21l-.39,4.63L10.94,16Z"/><path id="パス_36" data-name="パス 36" class="cls-5" d="M8.54,8.64,4,9.7l3,3.51L10.94,12Z"/></g></g></g></svg>