<svg id="Layer_1" data-name="Layer 1" xmlns="http://www.w3.org/2000/svg" viewBox="0 0 27.48 24.61"><defs><style>.cls-1{fill:#4e4e40;}.cls-2{fill:#fff;}</style></defs><title>Artboard 1</title><path class="cls-1" d="M24.1,1.34H15.52l-.72.78L13.69,3.34,12.58,2.12l-.72-.78H3.29L2.8,3.12l-2.2,8L.2,12.62l1.16,1,10.75,9.27,1.58,1.36,1.58-1.36L26,13.62l1.16-1-.41-1.48-2.19-8L24.1,1.34Z"/><polygon class="cls-2" points="13.69 6.93 13.69 21.05 2.94 11.78 13.69 6.93"/><polygon class="cls-2" points="10.79 3.76 5.13 3.76 2.94 11.78 13.69 6.93 10.79 3.76"/><polygon class="cls-2" points="13.69 6.93 13.69 21.05 24.45 11.78 13.69 6.93"/><polygon class="cls-2" points="16.59 3.76 22.25 3.76 24.45 11.78 13.69 6.93 16.59 3.76"/></svg>