<svg id="Layer_1" data-name="Layer 1" xmlns="http://www.w3.org/2000/svg" viewBox="0 0 150.77 94.31"><defs><style>.cls-1{fill:#fff;}.cls-2{fill:#bf9200;}.cls-3{fill:#fff900;}</style></defs><title>Artboard 1</title><path class="cls-1" d="M70.87,83.62a6.86,6.86,0,0,0-1.67-.16H67.63v8.87h1.48V88.8h.52a3.26,3.26,0,0,0,2.22-.72,2.48,2.48,0,0,0,.83-2,2.57,2.57,0,0,0-.78-1.91A2.23,2.23,0,0,0,70.87,83.62Zm.37,2.49c0,.88-.56,1.3-1.72,1.3h-.41V84.84h.35C70.66,84.84,71.24,85.25,71.24,86.11Z"/><path class="cls-1" d="M88.34,82.8,83.9,92.33h1.6l1-2.11h3.62L91,92.33h1.62L88.41,83Zm0,3.34,1.17,2.68H87.09Z"/><polygon class="cls-1" points="103.67 84.86 105.67 84.86 105.67 92.33 107.15 92.33 107.15 84.86 109.14 84.86 109.14 83.46 103.67 83.46 103.67 84.86"/><path class="cls-1" d="M125.73,87.74a2.57,2.57,0,0,0,.54-1.64,2.48,2.48,0,0,0-.87-2,4,4,0,0,0-2.55-.67h-1.62v8.87h1.48V88.77h.11l2.49,3.56h1.81l-2.72-3.74A2.42,2.42,0,0,0,125.73,87.74Zm-.9-1.62c0,.9-.58,1.34-1.78,1.34h-.34v-2.6h.39C124.26,84.86,124.83,85.27,124.83,86.12Z"/><path class="cls-1" d="M146.73,84.66a4.43,4.43,0,0,0-3.24-1.36,4.55,4.55,0,0,0-3.29,1.34,4.57,4.57,0,0,0,.14,6.66,4.67,4.67,0,0,0,6.39-.15,4.55,4.55,0,0,0,0-6.49Zm-3.3,6.44a3.18,3.18,0,0,1-3.11-3.22,3.12,3.12,0,0,1,.91-2.26,3.06,3.06,0,0,1,2.24-.92,3,3,0,0,1,2.23.92,3.29,3.29,0,0,1,0,4.55A3.06,3.06,0,0,1,143.43,91.1Z"/><path class="cls-2" d="M148.71,41.05h-47V5.55h47Zm-39.31-7.7H141V13.25H109.4Z"/><polygon class="cls-1" points="148.71 50.94 91.94 50.94 91.94 33.35 84.25 33.35 84.25 72.93 91.94 72.93 91.94 58.64 148.71 58.64 148.71 50.94"/><rect class="cls-1" x="50.71" y="49.29" width="39.58" height="7.7" transform="translate(123.65 -17.36) rotate(90)"/><path class="cls-3" d="M70.52,23.28a11.18,11.18,0,1,1,6.35-2A11.18,11.18,0,0,1,70.52,23.28Zm0-14.66a3.46,3.46,0,0,0-2,.62,3.49,3.49,0,1,0,4.85.88h0a3.46,3.46,0,0,0-2.24-1.44A3.36,3.36,0,0,0,70.5,8.62Z"/><rect class="cls-3" x="-8.79" y="57.33" width="75.53" height="7.7" transform="translate(-36.44 43.78) rotate(-49.76)"/></svg>