<svg id="Layer_1" data-name="Layer 1" xmlns="http://www.w3.org/2000/svg" viewBox="0 0 37 37"><defs><style>.cls-1{fill:#bf9200;}</style></defs><title>Artboard 1</title><path id="パス_47" data-name="パス 47" class="cls-1" d="M11.89,33.08c13.57,0,21-11.25,21-21,0-.32,0-.64,0-1A14.73,14.73,0,0,0,36.55,7.3a14.6,14.6,0,0,1-4.24,1.16,7.38,7.38,0,0,0,3.24-4.08,14.61,14.61,0,0,1-4.69,1.79,7.39,7.39,0,0,0-12.58,6.74A21,21,0,0,1,3.07,5.19,7.38,7.38,0,0,0,5.36,15,7.25,7.25,0,0,1,2,14.12v.09a7.38,7.38,0,0,0,5.92,7.24,7.39,7.39,0,0,1-3.34.13,7.38,7.38,0,0,0,6.9,5.12A14.71,14.71,0,0,1,.57,29.76a20.83,20.83,0,0,0,11.32,3.31"/></svg>